<svg width="677" height="148" viewBox="0 0 677 148" fill="none" xmlns="http://www.w3.org/2000/svg">
<path d="M81.2946 115.697L100.036 134.34L151.631 81.1305L133.559 63.1542L81.2946 115.697Z" fill="#9E3434"/>
<path d="M12.6764 80.427L30.7008 98.1176L81.1498 47.3824L63.0776 29.406L12.6764 80.427Z" fill="#A93838"/>
<g filter="url(#filter0_d_104_6)">
<path d="M29.8959 62.4475L11.1499 81.0851L64.0714 132.975L82.1479 115.003L29.8959 62.4475Z" fill="#9E3434"/>
</g>
<g filter="url(#filter1_d_104_6)">
<path d="M81.4359 11L62.744 29.6919L115.816 81.4284L133.84 63.4041L81.4359 11Z" fill="#A93838"/>
</g>
<g filter="url(#filter2_d_104_6)">
<path d="M47.0562 117.143L82.1035 82.4297L99.1265 99.7865L64.4129 134.5L47.0562 117.143Z" fill="#A93838"/>
</g>
<path d="M184.666 63.4096V61.336C184.666 60.7312 184.968 60.4288 185.573 60.4288H188.489C189.094 60.4288 189.396 60.7312 189.396 61.336V63.0208C189.396 66.9088 191.318 68.8528 195.163 68.8528H200.866C204.71 68.8528 206.633 66.8656 206.633 62.8912V60.688C206.633 57.5776 204.062 55.5472 198.922 54.5968C196.762 54.208 194.602 53.7544 192.442 53.236C190.282 52.7176 188.446 51.724 186.934 50.2552C185.422 48.7432 184.666 46.6912 184.666 44.0992V40.924C184.666 37.9432 185.508 35.6104 187.193 33.9256C188.921 32.1976 191.275 31.3336 194.256 31.3336H201.449C204.386 31.3336 206.719 32.1976 208.447 33.9256C210.175 35.6104 211.039 37.9432 211.039 40.924V42.544C211.039 43.192 210.758 43.516 210.197 43.516H207.216C206.654 43.516 206.374 43.192 206.374 42.544V41.3776C206.374 37.4464 204.451 35.4808 200.606 35.4808H195.098C191.254 35.4808 189.331 37.5328 189.331 41.6368V44.2288C189.331 46.432 190.778 47.944 193.673 48.7648C194.969 49.1104 196.394 49.4344 197.95 49.7368C199.505 49.996 201.06 50.3632 202.615 50.8384C204.214 51.2704 205.661 51.832 206.957 52.5232C208.253 53.1712 209.29 54.1864 210.067 55.5688C210.888 56.908 211.298 58.5496 211.298 60.4936V63.4096C211.298 66.3904 210.434 68.7448 208.706 70.4728C206.978 72.1576 204.646 73 201.708 73H194.256C191.318 73 188.986 72.1576 187.258 70.4728C185.53 68.7448 184.666 66.3904 184.666 63.4096ZM232.079 73H227.089C226.485 73 226.117 72.6976 225.988 72.0928L217.693 32.2408C217.564 31.636 217.845 31.3336 218.536 31.3336H222.035C222.683 31.3336 223.029 31.636 223.072 32.2408L229.617 67.9456H230.005L238.753 32.176C238.883 31.6144 239.229 31.3336 239.79 31.3336H243.678C244.24 31.3336 244.585 31.6144 244.715 32.176L253.593 67.9456H253.981L260.461 32.3056C260.591 31.6576 260.958 31.3336 261.563 31.3336H265.062C265.753 31.3336 266.034 31.6576 265.905 32.3056L257.545 72.0928C257.416 72.6976 257.07 73 256.509 73H251.519C250.914 73 250.547 72.6976 250.417 72.0928L241.929 37.2952H241.669L233.116 72.0928C232.986 72.6976 232.641 73 232.079 73ZM277.755 32.2408V72.0928C277.755 72.6976 277.452 73 276.848 73H273.932C273.327 73 273.024 72.6976 273.024 72.0928V32.2408C273.024 31.636 273.327 31.3336 273.932 31.3336H276.848C277.452 31.3336 277.755 31.636 277.755 32.2408ZM292.154 73H289.238C288.633 73 288.331 72.6976 288.331 72.0928V32.2408C288.331 31.636 288.633 31.3336 289.238 31.3336H309.391C309.996 31.3336 310.298 31.636 310.298 32.2408V34.5736C310.298 35.1784 309.996 35.4808 309.391 35.4808H293.709C293.277 35.4808 293.061 35.6752 293.061 36.064V50.1904C293.061 50.5792 293.277 50.7736 293.709 50.7736H307.577C308.181 50.7736 308.484 51.076 308.484 51.6808V54.0136C308.484 54.6184 308.181 54.9208 307.577 54.9208H293.709C293.277 54.9208 293.061 55.1368 293.061 55.5688V72.0928C293.061 72.6976 292.759 73 292.154 73ZM328.12 73H325.204C324.599 73 324.297 72.6976 324.297 72.0928V36.064C324.297 35.6752 324.081 35.4808 323.649 35.4808H314.836C314.188 35.4808 313.864 35.1784 313.864 34.5736V32.2408C313.864 31.636 314.188 31.3336 314.836 31.3336H338.488C339.136 31.3336 339.46 31.636 339.46 32.2408V34.5736C339.46 35.1784 339.136 35.4808 338.488 35.4808H329.675C329.243 35.4808 329.027 35.6752 329.027 36.064V72.0928C329.027 72.6976 328.725 73 328.12 73ZM365.877 73H362.961C362.356 73 362.054 72.6976 362.054 72.0928V32.2408C362.054 31.636 362.356 31.3336 362.961 31.3336H378.124C381.105 31.3336 383.438 32.1976 385.122 33.9256C386.807 35.6104 387.65 37.9432 387.65 40.924V48.1168C387.65 51.1408 386.807 53.4952 385.122 55.18C383.438 56.8648 381.105 57.7072 378.124 57.7072H367.432C367 57.7072 366.784 57.9016 366.784 58.2904V72.0928C366.784 72.6976 366.482 73 365.877 73ZM367.432 53.4952H377.476C381.105 53.4952 382.919 51.6376 382.919 47.9224V41.1184C382.919 37.36 381.105 35.4808 377.476 35.4808H367.432C367 35.4808 366.784 35.6752 366.784 36.064V52.912C366.784 53.3008 367 53.4952 367.432 53.4952ZM399.985 73H397.069C396.465 73 396.162 72.6976 396.162 72.0928V32.2408C396.162 31.636 396.465 31.3336 397.069 31.3336H411.973C414.954 31.3336 417.309 32.1976 419.037 33.9256C420.765 35.6104 421.629 37.9432 421.629 40.924V46.8208C421.629 49.24 421.045 51.2488 419.879 52.8472C418.713 54.4024 417.093 55.4392 415.019 55.9576V56.2168L422.536 71.9632C422.925 72.6544 422.709 73 421.888 73H418.972C418.237 73 417.697 72.6976 417.352 72.0928L410.094 56.4112H401.541C401.109 56.4112 400.893 56.6056 400.893 56.9944V72.0928C400.893 72.6976 400.59 73 399.985 73ZM401.541 52.4584H411.325C415.041 52.4584 416.898 50.6008 416.898 46.8856V41.1184C416.898 37.36 415.041 35.4808 411.325 35.4808H401.541C401.109 35.4808 400.893 35.6752 400.893 36.064V51.8752C400.893 52.264 401.109 52.4584 401.541 52.4584ZM440.428 68.8528H447.037C450.666 68.8528 452.48 66.9736 452.48 63.2152V41.1184C452.48 37.36 450.666 35.4808 447.037 35.4808H440.428C436.842 35.4808 435.049 37.36 435.049 41.1184V63.2152C435.049 66.9736 436.842 68.8528 440.428 68.8528ZM447.62 73H439.909C436.928 73 434.574 72.1576 432.846 70.4728C431.161 68.788 430.319 66.4336 430.319 63.4096V40.924C430.319 37.9 431.161 35.5456 432.846 33.8608C434.574 32.176 436.928 31.3336 439.909 31.3336H447.62C450.601 31.3336 452.934 32.1976 454.619 33.9256C456.347 35.6104 457.211 37.9432 457.211 40.924V63.4096C457.211 66.3904 456.347 68.7448 454.619 70.4728C452.934 72.1576 450.601 73 447.62 73ZM496.074 31.3336H501.322C501.927 31.3336 502.23 31.636 502.23 32.2408V72.0928C502.23 72.6976 501.927 73 501.322 73H498.471C497.866 73 497.564 72.6976 497.564 72.0928V37.684H497.305L487.261 63.0856C487.002 63.6472 486.613 63.928 486.094 63.928H482.984C482.422 63.928 482.055 63.6472 481.882 63.0856L471.644 37.6192H471.385V72.0928C471.385 72.6976 471.104 73 470.542 73H467.691C467.086 73 466.784 72.6976 466.784 72.0928V32.2408C466.784 31.636 467.086 31.3336 467.691 31.3336H472.94C473.329 31.3336 473.588 31.5064 473.718 31.852L484.345 58.6792H484.669L495.296 31.852C495.382 31.5064 495.642 31.3336 496.074 31.3336ZM521.934 68.8528H528.544C532.172 68.8528 533.987 66.9736 533.987 63.2152V41.1184C533.987 37.36 532.172 35.4808 528.544 35.4808H521.934C518.348 35.4808 516.556 37.36 516.556 41.1184V63.2152C516.556 66.9736 518.348 68.8528 521.934 68.8528ZM529.127 73H521.416C518.435 73 516.08 72.1576 514.352 70.4728C512.668 68.788 511.825 66.4336 511.825 63.4096V40.924C511.825 37.9 512.668 35.5456 514.352 33.8608C516.08 32.176 518.435 31.3336 521.416 31.3336H529.127C532.108 31.3336 534.44 32.1976 536.125 33.9256C537.853 35.6104 538.717 37.9432 538.717 40.924V63.4096C538.717 66.3904 537.853 68.7448 536.125 70.4728C534.44 72.1576 532.108 73 529.127 73ZM558.464 73H555.548C554.943 73 554.641 72.6976 554.641 72.0928V36.064C554.641 35.6752 554.425 35.4808 553.993 35.4808H545.18C544.532 35.4808 544.208 35.1784 544.208 34.5736V32.2408C544.208 31.636 544.532 31.3336 545.18 31.3336H568.832C569.48 31.3336 569.804 31.636 569.804 32.2408V34.5736C569.804 35.1784 569.48 35.4808 568.832 35.4808H560.019C559.587 35.4808 559.371 35.6752 559.371 36.064V72.0928C559.371 72.6976 559.069 73 558.464 73ZM585.405 68.8528H592.015C595.643 68.8528 597.458 66.9736 597.458 63.2152V41.1184C597.458 37.36 595.643 35.4808 592.015 35.4808H585.405C581.819 35.4808 580.027 37.36 580.027 41.1184V63.2152C580.027 66.9736 581.819 68.8528 585.405 68.8528ZM592.598 73H584.887C581.906 73 579.551 72.1576 577.823 70.4728C576.139 68.788 575.296 66.4336 575.296 63.4096V40.924C575.296 37.9 576.139 35.5456 577.823 33.8608C579.551 32.176 581.906 31.3336 584.887 31.3336H592.598C595.579 31.3336 597.911 32.1976 599.596 33.9256C601.324 35.6104 602.188 37.9432 602.188 40.924V63.4096C602.188 66.3904 601.324 68.7448 599.596 70.4728C597.911 72.1576 595.579 73 592.598 73ZM615.585 73H612.669C612.064 73 611.761 72.6976 611.761 72.0928V32.2408C611.761 31.636 612.064 31.3336 612.669 31.3336H627.573C630.553 31.3336 632.908 32.1976 634.636 33.9256C636.364 35.6104 637.228 37.9432 637.228 40.924V46.8208C637.228 49.24 636.645 51.2488 635.478 52.8472C634.312 54.4024 632.692 55.4392 630.618 55.9576V56.2168L638.135 71.9632C638.524 72.6544 638.308 73 637.487 73H634.571C633.837 73 633.297 72.6976 632.951 72.0928L625.693 56.4112H617.14C616.708 56.4112 616.492 56.6056 616.492 56.9944V72.0928C616.492 72.6976 616.189 73 615.585 73ZM617.14 52.4584H626.925C630.64 52.4584 632.497 50.6008 632.497 46.8856V41.1184C632.497 37.36 630.64 35.4808 626.925 35.4808H617.14C616.708 35.4808 616.492 35.6752 616.492 36.064V51.8752C616.492 52.264 616.708 52.4584 617.14 52.4584ZM647.085 73H643.844C643.283 73 643.088 72.6976 643.261 72.0928L655.379 32.2408C655.552 31.636 655.962 31.3336 656.61 31.3336H661.276C661.924 31.3336 662.334 31.636 662.507 32.2408L674.625 72.0928C674.797 72.6976 674.603 73 674.041 73H670.737C670.261 73 669.959 72.6976 669.829 72.0928L666.784 62.632H651.102L648.057 72.0928C647.884 72.6976 647.56 73 647.085 73ZM658.813 36.1936L652.139 58.6144H665.747L659.073 36.1936H658.813Z" fill="white"/>
<path d="M189.821 114H186.192C184.944 114 183.955 113.635 183.226 112.906C182.515 112.176 182.16 111.178 182.16 109.91V99.5712C182.16 98.304 182.515 97.3056 183.226 96.576C183.955 95.8464 184.944 95.4816 186.192 95.4816H189.821C191.069 95.4816 192.048 95.8464 192.758 96.576C193.488 97.3056 193.853 98.304 193.853 99.5712V100.982C193.853 101.213 193.747 101.328 193.536 101.328H192.73C192.518 101.328 192.413 101.213 192.413 100.982V99.6288C192.413 98.7072 192.173 98.0064 191.693 97.5264C191.232 97.0272 190.56 96.7776 189.677 96.7776H186.307C185.424 96.7776 184.752 97.0272 184.291 97.5264C183.83 98.0256 183.6 98.7264 183.6 99.6288V109.853C183.6 110.755 183.83 111.456 184.291 111.955C184.752 112.454 185.424 112.704 186.307 112.704H189.677C190.56 112.704 191.232 112.464 191.693 111.984C192.173 111.485 192.413 110.774 192.413 109.853V108.499C192.413 108.269 192.518 108.154 192.73 108.154H193.536C193.747 108.154 193.853 108.269 193.853 108.499V109.91C193.853 111.178 193.488 112.176 192.758 112.906C192.048 113.635 191.069 114 189.821 114ZM199.469 114H198.633C198.441 114 198.345 113.885 198.345 113.654V99.6576C198.345 99.4272 198.441 99.312 198.633 99.312H199.469C199.68 99.312 199.785 99.4272 199.785 99.6576V100.867H199.901C200.112 100.464 200.486 100.109 201.024 99.8016C201.561 99.4752 202.224 99.312 203.011 99.312H204.134C204.345 99.312 204.451 99.4176 204.451 99.6288V100.32C204.451 100.531 204.345 100.627 204.134 100.608H202.781C201.84 100.608 201.101 100.896 200.563 101.472C200.045 102.048 199.785 102.826 199.785 103.805V113.654C199.785 113.885 199.68 114 199.469 114ZM214.401 93.7536H215.697C215.793 93.7536 215.86 93.792 215.898 93.8688C215.937 93.9264 215.917 93.9936 215.841 94.0704L213.249 97.2096C213.133 97.3824 212.97 97.4688 212.759 97.4688H212.212C212.001 97.4688 211.953 97.3536 212.068 97.1232L213.882 94.0704C213.978 93.8592 214.151 93.7536 214.401 93.7536ZM217.713 114H211.693C210.445 114 209.457 113.635 208.727 112.906C208.017 112.176 207.661 111.178 207.661 109.91V103.402C207.661 102.134 208.017 101.136 208.727 100.406C209.457 99.6768 210.445 99.312 211.693 99.312H214.17C215.418 99.312 216.407 99.6768 217.137 100.406C217.866 101.136 218.231 102.134 218.231 103.402V107.059C218.231 107.29 218.116 107.405 217.885 107.405H209.361C209.188 107.405 209.101 107.491 209.101 107.664V109.882C209.101 110.784 209.332 111.485 209.793 111.984C210.253 112.464 210.925 112.704 211.809 112.704H217.713C217.924 112.704 218.029 112.81 218.029 113.021V113.683C218.029 113.894 217.924 114 217.713 114ZM209.361 106.253H216.532C216.705 106.253 216.791 106.166 216.791 105.994V103.43C216.791 102.528 216.561 101.837 216.1 101.357C215.639 100.858 214.967 100.608 214.084 100.608H211.809C210.925 100.608 210.253 100.858 209.793 101.357C209.332 101.837 209.101 102.528 209.101 103.43V105.994C209.101 106.166 209.188 106.253 209.361 106.253ZM228.317 114H226.387C225.158 114 224.189 113.635 223.478 112.906C222.768 112.176 222.413 111.178 222.413 109.91V103.402C222.413 102.134 222.768 101.136 223.478 100.406C224.189 99.6768 225.158 99.312 226.387 99.312H228.317C229.795 99.312 230.803 99.8112 231.341 100.81H231.456V94.0992C231.456 93.8688 231.552 93.7536 231.744 93.7536H232.579C232.79 93.7536 232.896 93.8688 232.896 94.0992V113.654C232.896 113.885 232.79 114 232.579 114H231.744C231.552 114 231.456 113.885 231.456 113.654V112.502H231.341C230.803 113.501 229.795 114 228.317 114ZM231.456 109.882V103.43C231.456 102.528 231.187 101.837 230.649 101.357C230.131 100.858 229.411 100.608 228.489 100.608H226.56C225.677 100.608 225.005 100.858 224.544 101.357C224.083 101.856 223.853 102.557 223.853 103.459V109.853C223.853 110.755 224.083 111.456 224.544 111.955C225.005 112.454 225.677 112.704 226.56 112.704H228.489C229.411 112.704 230.131 112.464 230.649 111.984C231.187 111.485 231.456 110.784 231.456 109.882ZM237.933 96.8928V94.128C237.933 93.9168 238.029 93.8112 238.221 93.8112H239.085C239.277 93.8112 239.373 93.9168 239.373 94.128V96.8928C239.373 97.1232 239.277 97.2384 239.085 97.2384H238.221C238.029 97.2384 237.933 97.1232 237.933 96.8928ZM237.933 113.654V99.6576C237.933 99.4272 238.029 99.312 238.221 99.312H239.056C239.267 99.312 239.373 99.4272 239.373 99.6576V113.654C239.373 113.885 239.277 114 239.085 114H238.221C238.029 114 237.933 113.885 237.933 113.654ZM245.045 100.608H243.289C243.077 100.608 242.972 100.512 242.972 100.32V99.6288C242.972 99.4176 243.077 99.312 243.289 99.312H245.045C245.218 99.312 245.305 99.2256 245.305 99.0528V96.72C245.305 96.4896 245.41 96.3744 245.621 96.3744H246.457C246.668 96.3744 246.773 96.4896 246.773 96.72V99.0528C246.773 99.2256 246.86 99.312 247.033 99.312H250.46C250.671 99.312 250.777 99.4176 250.777 99.6288V100.32C250.777 100.512 250.671 100.608 250.46 100.608H247.033C246.86 100.608 246.773 100.694 246.773 100.867V109.939C246.773 110.822 247.023 111.504 247.522 111.984C248.021 112.464 248.722 112.704 249.625 112.704H250.748C250.959 112.704 251.065 112.81 251.065 113.021V113.683C251.065 113.894 250.959 114 250.748 114H249.509C248.242 114 247.225 113.645 246.457 112.934C245.689 112.224 245.305 111.245 245.305 109.997V100.867C245.305 100.694 245.218 100.608 245.045 100.608ZM261.193 114H258.716C257.468 114 256.479 113.635 255.75 112.906C255.039 112.176 254.684 111.178 254.684 109.91V103.402C254.684 102.134 255.039 101.136 255.75 100.406C256.479 99.6768 257.468 99.312 258.716 99.312H261.193C262.441 99.312 263.43 99.6768 264.159 100.406C264.889 101.136 265.254 102.134 265.254 103.402V109.91C265.254 111.178 264.889 112.176 264.159 112.906C263.43 113.635 262.441 114 261.193 114ZM258.831 112.704H261.078C261.961 112.704 262.633 112.464 263.094 111.984C263.574 111.485 263.814 110.784 263.814 109.882V103.43C263.814 102.528 263.574 101.837 263.094 101.357C262.633 100.858 261.961 100.608 261.078 100.608H258.831C257.948 100.608 257.276 100.858 256.815 101.357C256.355 101.837 256.124 102.528 256.124 103.43V109.882C256.124 110.784 256.355 111.485 256.815 111.984C257.276 112.464 257.948 112.704 258.831 112.704ZM286.298 113.021V113.683C286.298 113.894 286.192 114 285.981 114H281.834C280.586 114 279.597 113.635 278.867 112.906C278.157 112.176 277.802 111.178 277.802 109.91V103.402C277.802 102.134 278.157 101.136 278.867 100.406C279.597 99.6768 280.586 99.312 281.834 99.312H285.981C286.192 99.312 286.298 99.4176 286.298 99.6288V100.32C286.298 100.512 286.192 100.608 285.981 100.608H281.949C281.066 100.608 280.394 100.858 279.933 101.357C279.472 101.856 279.242 102.557 279.242 103.459V109.853C279.242 110.755 279.472 111.456 279.933 111.955C280.394 112.454 281.066 112.704 281.949 112.704H285.981C286.192 112.704 286.298 112.81 286.298 113.021ZM296.221 114H293.744C292.496 114 291.507 113.635 290.778 112.906C290.067 112.176 289.712 111.178 289.712 109.91V103.402C289.712 102.134 290.067 101.136 290.778 100.406C291.507 99.6768 292.496 99.312 293.744 99.312H296.221C297.469 99.312 298.458 99.6768 299.187 100.406C299.917 101.136 300.282 102.134 300.282 103.402V109.91C300.282 111.178 299.917 112.176 299.187 112.906C298.458 113.635 297.469 114 296.221 114ZM293.859 112.704H296.106C296.989 112.704 297.661 112.464 298.122 111.984C298.602 111.485 298.842 110.784 298.842 109.882V103.43C298.842 102.528 298.602 101.837 298.122 101.357C297.661 100.858 296.989 100.608 296.106 100.608H293.859C292.976 100.608 292.304 100.858 291.843 101.357C291.383 101.837 291.152 102.528 291.152 103.43V109.882C291.152 110.784 291.383 111.485 291.843 111.984C292.304 112.464 292.976 112.704 293.859 112.704ZM305.987 114H305.152C304.96 114 304.864 113.885 304.864 113.654V99.6576C304.864 99.4272 304.96 99.312 305.152 99.312H305.987C306.198 99.312 306.304 99.4272 306.304 99.6576V100.81H306.419C306.957 99.8112 307.955 99.312 309.414 99.312H311.315C312.544 99.312 313.513 99.6768 314.224 100.406C314.934 101.136 315.289 102.134 315.289 103.402V113.654C315.289 113.885 315.193 114 315.001 114H314.166C313.955 114 313.849 113.885 313.849 113.654V103.459C313.849 102.557 313.619 101.856 313.158 101.357C312.697 100.858 312.025 100.608 311.142 100.608H309.27C308.349 100.608 307.619 100.858 307.081 101.357C306.563 101.837 306.304 102.528 306.304 103.43V113.654C306.304 113.885 306.198 114 305.987 114ZM324.789 114H319.777C319.566 114 319.461 113.894 319.461 113.683V113.021C319.461 112.829 319.566 112.733 319.777 112.733H324.645C326.373 112.733 327.237 112.061 327.237 110.717V110.026C327.237 108.778 326.699 107.962 325.624 107.578L322.024 106.195C321.045 105.811 320.344 105.36 319.921 104.842C319.518 104.323 319.317 103.603 319.317 102.682C319.317 100.435 320.555 99.312 323.032 99.312H327.697C327.909 99.312 328.014 99.4176 328.014 99.6288V100.291C328.014 100.483 327.909 100.579 327.697 100.579H323.176C322.389 100.579 321.793 100.752 321.39 101.098C321.006 101.443 320.814 101.846 320.814 102.307V102.97C320.814 103.507 320.958 103.93 321.246 104.237C321.553 104.544 322.014 104.803 322.629 105.014L326.229 106.454C327.227 106.781 327.889 107.27 328.216 107.923C328.561 108.557 328.734 109.45 328.734 110.602C328.734 111.754 328.408 112.608 327.755 113.165C327.121 113.722 326.133 114 324.789 114ZM333.16 96.8928V94.128C333.16 93.9168 333.256 93.8112 333.448 93.8112H334.312C334.504 93.8112 334.6 93.9168 334.6 94.128V96.8928C334.6 97.1232 334.504 97.2384 334.312 97.2384H333.448C333.256 97.2384 333.16 97.1232 333.16 96.8928ZM333.16 113.654V99.6576C333.16 99.4272 333.256 99.312 333.448 99.312H334.283C334.494 99.312 334.6 99.4272 334.6 99.6576V113.654C334.6 113.885 334.504 114 334.312 114H333.448C333.256 114 333.16 113.885 333.16 113.654ZM345.341 113.165H343.469C342.24 113.165 341.261 112.8 340.531 112.07C339.821 111.341 339.466 110.352 339.466 109.104V103.402C339.466 102.134 339.821 101.136 340.531 100.406C341.261 99.6768 342.25 99.312 343.498 99.312H349.603C349.815 99.312 349.92 99.4272 349.92 99.6576V113.942C349.92 115.21 349.555 116.208 348.826 116.938C348.096 117.667 347.107 118.032 345.859 118.032H340.618C340.407 118.032 340.301 117.926 340.301 117.715V117.024C340.301 116.832 340.407 116.736 340.618 116.736H345.744C346.627 116.736 347.299 116.486 347.76 115.987C348.221 115.507 348.451 114.806 348.451 113.885V111.667H348.336C347.856 112.666 346.858 113.165 345.341 113.165ZM348.451 109.046V100.867C348.451 100.694 348.365 100.608 348.192 100.608H343.642C342.759 100.608 342.077 100.858 341.597 101.357C341.136 101.837 340.906 102.538 340.906 103.459V109.046C340.906 109.949 341.136 110.65 341.597 111.149C342.077 111.629 342.759 111.869 343.642 111.869H345.485C346.407 111.869 347.127 111.629 347.645 111.149C348.183 110.65 348.451 109.949 348.451 109.046ZM355.907 114H355.071C354.879 114 354.783 113.885 354.783 113.654V99.6576C354.783 99.4272 354.879 99.312 355.071 99.312H355.907C356.118 99.312 356.223 99.4272 356.223 99.6576V100.81H356.339C356.876 99.8112 357.875 99.312 359.334 99.312H361.235C362.463 99.312 363.433 99.6768 364.143 100.406C364.854 101.136 365.209 102.134 365.209 103.402V113.654C365.209 113.885 365.113 114 364.921 114H364.086C363.875 114 363.769 113.885 363.769 113.654V103.459C363.769 102.557 363.539 101.856 363.078 101.357C362.617 100.858 361.945 100.608 361.062 100.608H359.19C358.268 100.608 357.539 100.858 357.001 101.357C356.483 101.837 356.223 102.528 356.223 103.43V113.654C356.223 113.885 356.118 114 355.907 114ZM375.543 114H373.7C372.452 114 371.463 113.635 370.734 112.906C370.023 112.176 369.668 111.178 369.668 109.91V103.402C369.668 102.134 370.023 101.136 370.734 100.406C371.463 99.6768 372.452 99.312 373.7 99.312H379.806C379.998 99.312 380.094 99.4272 380.094 99.6576V113.654C380.094 113.885 379.998 114 379.806 114H378.971C378.759 114 378.654 113.885 378.654 113.654V112.502H378.539C378.039 113.501 377.041 114 375.543 114ZM378.654 109.882V100.867C378.654 100.694 378.558 100.608 378.366 100.608H373.815C372.932 100.608 372.26 100.858 371.799 101.357C371.339 101.856 371.108 102.557 371.108 103.459V109.853C371.108 110.755 371.339 111.456 371.799 111.955C372.26 112.454 372.932 112.704 373.815 112.704H375.687C376.609 112.704 377.329 112.464 377.847 111.984C378.385 111.485 378.654 110.784 378.654 109.882ZM390.604 114H388.675C387.446 114 386.476 113.635 385.766 112.906C385.056 112.176 384.7 111.178 384.7 109.91V103.402C384.7 102.134 385.056 101.136 385.766 100.406C386.476 99.6768 387.446 99.312 388.675 99.312H390.604C392.083 99.312 393.091 99.8112 393.628 100.81H393.744V94.0992C393.744 93.8688 393.84 93.7536 394.032 93.7536H394.867C395.078 93.7536 395.184 93.8688 395.184 94.0992V113.654C395.184 113.885 395.078 114 394.867 114H394.032C393.84 114 393.744 113.885 393.744 113.654V112.502H393.628C393.091 113.501 392.083 114 390.604 114ZM393.744 109.882V103.43C393.744 102.528 393.475 101.837 392.937 101.357C392.419 100.858 391.699 100.608 390.777 100.608H388.848C387.964 100.608 387.292 100.858 386.832 101.357C386.371 101.856 386.14 102.557 386.14 103.459V109.853C386.14 110.755 386.371 111.456 386.832 111.955C387.292 112.454 387.964 112.704 388.848 112.704H390.777C391.699 112.704 392.419 112.464 392.937 111.984C393.475 111.485 393.744 110.784 393.744 109.882ZM406.298 114H403.821C402.573 114 401.584 113.635 400.855 112.906C400.144 112.176 399.789 111.178 399.789 109.91V103.402C399.789 102.134 400.144 101.136 400.855 100.406C401.584 99.6768 402.573 99.312 403.821 99.312H406.298C407.546 99.312 408.535 99.6768 409.264 100.406C409.994 101.136 410.359 102.134 410.359 103.402V109.91C410.359 111.178 409.994 112.176 409.264 112.906C408.535 113.635 407.546 114 406.298 114ZM403.936 112.704H406.183C407.066 112.704 407.738 112.464 408.199 111.984C408.679 111.485 408.919 110.784 408.919 109.882V103.43C408.919 102.528 408.679 101.837 408.199 101.357C407.738 100.858 407.066 100.608 406.183 100.608H403.936C403.053 100.608 402.381 100.858 401.92 101.357C401.459 101.837 401.229 102.528 401.229 103.43V109.882C401.229 110.784 401.459 111.485 401.92 111.984C402.381 112.464 403.053 112.704 403.936 112.704Z" fill="white" fill-opacity="0.69"/>
<defs>
<filter id="filter0_d_104_6" x="0.468852" y="46.4258" width="97.7007" height="97.2304" filterUnits="userSpaceOnUse" color-interpolation-filters="sRGB">
<feFlood flood-opacity="0" result="BackgroundImageFix"/>
<feColorMatrix in="SourceAlpha" type="matrix" values="0 0 0 0 0 0 0 0 0 0 0 0 0 0 0 0 0 0 127 0" result="hardAlpha"/>
<feOffset dx="2.67027" dy="-2.67027"/>
<feGaussianBlur stdDeviation="6.67568"/>
<feComposite in2="hardAlpha" operator="out"/>
<feColorMatrix type="matrix" values="0 0 0 0 0 0 0 0 0 0 0 0 0 0 0 0 0 0 0.25 0"/>
<feBlend mode="normal" in2="BackgroundImageFix" result="effect1_dropShadow_104_6"/>
<feBlend mode="normal" in="SourceGraphic" in2="effect1_dropShadow_104_6" result="shape"/>
</filter>
<filter id="filter1_d_104_6" x="49.3927" y="0.318919" width="97.7987" height="97.1311" filterUnits="userSpaceOnUse" color-interpolation-filters="sRGB">
<feFlood flood-opacity="0" result="BackgroundImageFix"/>
<feColorMatrix in="SourceAlpha" type="matrix" values="0 0 0 0 0 0 0 0 0 0 0 0 0 0 0 0 0 0 127 0" result="hardAlpha"/>
<feOffset dy="2.67027"/>
<feGaussianBlur stdDeviation="6.67568"/>
<feComposite in2="hardAlpha" operator="out"/>
<feColorMatrix type="matrix" values="0 0 0 0 0 0 0 0 0 0 0 0 0 0 0 0 0 0 0.25 0"/>
<feBlend mode="normal" in2="BackgroundImageFix" result="effect1_dropShadow_104_6"/>
<feBlend mode="normal" in="SourceGraphic" in2="effect1_dropShadow_104_6" result="shape"/>
</filter>
<filter id="filter2_d_104_6" x="33.7048" y="69.0784" width="78.773" height="78.773" filterUnits="userSpaceOnUse" color-interpolation-filters="sRGB">
<feFlood flood-opacity="0" result="BackgroundImageFix"/>
<feColorMatrix in="SourceAlpha" type="matrix" values="0 0 0 0 0 0 0 0 0 0 0 0 0 0 0 0 0 0 127 0" result="hardAlpha"/>
<feOffset/>
<feGaussianBlur stdDeviation="6.67568"/>
<feComposite in2="hardAlpha" operator="out"/>
<feColorMatrix type="matrix" values="0 0 0 0 0 0 0 0 0 0 0 0 0 0 0 0 0 0 0.25 0"/>
<feBlend mode="normal" in2="BackgroundImageFix" result="effect1_dropShadow_104_6"/>
<feBlend mode="normal" in="SourceGraphic" in2="effect1_dropShadow_104_6" result="shape"/>
</filter>
</defs>
</svg>
